<?xml version="1.0" encoding="UTF-8"?>
<svg xmlns="http://www.w3.org/2000/svg" xmlns:xlink="http://www.w3.org/1999/xlink" width="4306.76pt" height="2169.53pt" viewBox="0 0 4306.76 2169.53" version="1.1">
<g id="surface1">
<path style=" stroke:none;fill-rule:nonzero;fill:rgb(0%,0%,0%);fill-opacity:1;" d="M 3902.109375 0.00390625 L 3902.109375 364.757812 L 3601.949219 364.757812 L 3601.949219 0.00390625 L 3368.277344 0.00390625 L 3368.277344 364.757812 L 3068.117188 364.757812 L 3068.117188 0.00390625 L 2834.445312 0.00390625 L 2834.445312 364.757812 L 2536.183594 364.757812 L 2536.183594 0.00390625 L 2302.511719 0.00390625 L 2302.511719 364.757812 L 2002.347656 364.757812 L 2002.347656 0.00390625 L 1768.679688 0.00390625 L 1768.679688 364.757812 L 1468.515625 364.757812 L 1468.515625 0.00390625 L 1234.84375 0.00390625 L 1234.84375 364.757812 L 934.683594 364.757812 L 934.683594 0.00390625 L 701.011719 0.00390625 L 701.011719 364.757812 L 400.851562 364.757812 L 400.851562 0.00390625 L 167.179688 0.00390625 L 167.179688 364.757812 L 0 364.757812 L 0 1804.777344 L 167.179688 1804.777344 L 167.179688 2169.53125 L 400.851562 2169.53125 L 400.851562 1804.777344 L 701.011719 1804.777344 L 701.011719 2169.53125 L 934.683594 2169.53125 L 934.683594 1804.777344 L 1234.84375 1804.777344 L 1234.84375 2169.53125 L 1468.515625 2169.53125 L 1468.515625 1804.777344 L 1768.679688 1804.777344 L 1768.679688 2169.53125 L 2002.351562 2169.53125 L 2002.351562 1804.777344 L 2302.511719 1804.777344 L 2302.511719 2169.53125 L 2536.183594 2169.53125 L 2536.183594 1804.777344 L 2834.445312 1804.777344 L 2834.445312 2169.53125 L 3068.117188 2169.53125 L 3068.117188 1804.777344 L 3368.277344 1804.777344 L 3368.277344 2169.53125 L 3601.949219 2169.53125 L 3601.949219 1804.777344 L 3902.113281 1804.777344 L 3902.113281 2169.53125 L 4135.78125 2169.53125 L 4135.78125 1804.777344 L 4306.761719 1804.777344 L 4306.761719 364.757812 L 4135.78125 364.757812 L 4135.78125 0.00390625 Z M 3383.476562 927.085938 L 3383.476562 826.398438 L 3476.566406 826.398438 L 3476.566406 725.710938 L 4035.09375 725.710938 L 4035.09375 826.398438 L 3569.652344 826.398438 L 3569.652344 1027.773438 L 3942.003906 1027.773438 L 3942.003906 1128.460938 L 4035.09375 1128.460938 L 4035.09375 1329.835938 L 3942.003906 1329.835938 L 3942.003906 1430.523438 L 3383.476562 1430.523438 L 3383.476562 1329.835938 L 3848.917969 1329.835938 L 3848.917969 1128.460938 L 3476.566406 1128.460938 L 3476.566406 1027.773438 L 3383.476562 1027.773438 Z M 2910.433594 1027.773438 L 2910.433594 927.085938 L 3003.523438 927.085938 L 3003.523438 826.398438 L 3096.613281 826.398438 L 3096.613281 725.710938 L 3282.789062 725.710938 L 3282.789062 826.398438 L 3284.6875 826.398438 L 3191.601562 826.398438 L 3191.601562 927.085938 L 3096.613281 927.085938 L 3096.613281 1027.773438 L 3003.523438 1027.773438 L 3003.523438 1128.460938 L 3096.613281 1128.460938 L 3096.613281 1229.148438 L 3189.699219 1229.148438 L 3189.699219 1329.835938 L 3282.789062 1329.835938 L 3282.789062 1430.523438 L 3096.613281 1430.523438 L 3096.613281 1329.835938 L 3003.523438 1329.835938 L 3003.523438 1229.148438 L 2910.433594 1229.148438 L 2910.433594 1128.460938 L 2817.347656 1128.460938 L 2817.347656 1430.523438 L 2631.167969 1430.523438 L 2631.167969 725.710938 L 2817.347656 725.710938 L 2817.347656 1027.773438 Z M 2161.929688 927.085938 L 2255.019531 927.085938 L 2255.019531 826.398438 L 2348.105469 826.398438 L 2348.105469 725.710938 L 2534.28125 725.710938 L 2534.28125 826.398438 L 2441.195312 826.398438 L 2441.195312 927.085938 L 2348.105469 927.085938 L 2348.105469 1027.773438 L 2255.019531 1027.773438 L 2255.019531 1430.523438 L 2068.839844 1430.523438 L 2068.839844 1027.773438 L 1975.75 1027.773438 L 1975.75 927.085938 L 1882.664062 927.085938 L 1882.664062 826.398438 L 1789.574219 826.398438 L 1789.574219 725.710938 L 1975.75 725.710938 L 1975.75 826.398438 L 2068.839844 826.398438 L 2068.839844 927.085938 Z M 1502.710938 1027.773438 L 1502.710938 725.710938 L 1690.789062 725.710938 L 1690.789062 1430.523438 L 1502.710938 1430.523438 L 1502.710938 1229.148438 L 1409.621094 1229.148438 L 1409.621094 1128.460938 L 1316.535156 1128.460938 L 1316.535156 1027.773438 L 1223.445312 1027.773438 L 1223.445312 1430.523438 L 1037.269531 1430.523438 L 1037.269531 725.710938 L 1223.445312 725.710938 L 1223.445312 826.398438 L 1316.535156 826.398438 L 1316.535156 927.085938 L 1409.621094 927.085938 L 1409.621094 1027.773438 Z M 288.765625 1229.148438 L 288.765625 826.398438 L 381.851562 826.398438 L 381.851562 725.710938 L 847.292969 725.710938 L 847.292969 826.398438 L 940.382812 826.398438 L 940.382812 1329.835938 L 847.292969 1329.835938 L 847.292969 1430.523438 L 381.851562 1430.523438 L 381.851562 1329.835938 L 288.765625 1329.835938 Z M 288.765625 1229.148438 "/>
<path style=" stroke:none;fill-rule:nonzero;fill:rgb(0%,0%,0%);fill-opacity:1;" d="M 564.230469 826.398438 L 471.140625 826.398438 L 471.140625 1333.632812 L 752.304688 1333.632812 L 752.304688 826.398438 Z M 564.230469 826.398438 "/>
</g>
</svg>
