999
"DXF R12 Output" (www.mydxf.blogspot.com)
 0 
SECTION
 2 
HEADER
 9 
$ACADVER
 1 
AC1009
 9 
$EXTMIN
 10 
 0 
 20 
 0 
 9 
$EXTMAX
 10 
 8.5 
 20 
 11 
 0 
ENDSEC
 0 
SECTION
 2 
ENTITIES
0
LINE
8
Layer 1
10
1376.580000
20
765.361000
11
1376.580000
21
636.683000
0
LINE
8
Layer 1
10
1376.580000
20
636.683000
11
1270.690000
21
636.683000
0
LINE
8
Layer 1
10
1270.690000
20
636.683000
11
1270.690000
21
765.361000
0
LINE
8
Layer 1
10
1270.690000
20
765.361000
11
1188.250000
21
765.361000
0
LINE
8
Layer 1
10
1188.250000
20
765.361000
11
1188.250000
21
636.683000
0
LINE
8
Layer 1
10
1188.250000
20
636.683000
11
1082.360000
21
636.683000
0
LINE
8
Layer 1
10
1082.360000
20
636.683000
11
1082.360000
21
765.361000
0
LINE
8
Layer 1
10
1082.360000
20
765.361000
11
999.930000
21
765.361000
0
LINE
8
Layer 1
10
999.930000
20
765.361000
11
999.930000
21
636.683000
0
LINE
8
Layer 1
10
999.930000
20
636.683000
11
894.710000
21
636.683000
0
LINE
8
Layer 1
10
894.710000
20
636.683000
11
894.710000
21
765.361000
0
LINE
8
Layer 1
10
894.710000
20
765.361000
11
812.275000
21
765.361000
0
LINE
8
Layer 1
10
812.275000
20
765.361000
11
812.275000
21
636.683000
0
LINE
8
Layer 1
10
812.275000
20
636.683000
11
706.384000
21
636.683000
0
LINE
8
Layer 1
10
706.384000
20
636.683000
11
706.384000
21
765.361000
0
LINE
8
Layer 1
10
706.384000
20
765.361000
11
623.951000
21
765.361000
0
LINE
8
Layer 1
10
623.951000
20
765.361000
11
623.951000
21
636.683000
0
LINE
8
Layer 1
10
623.951000
20
636.683000
11
518.060000
21
636.683000
0
LINE
8
Layer 1
10
518.060000
20
636.683000
11
518.060000
21
765.361000
0
LINE
8
Layer 1
10
518.060000
20
765.361000
11
435.626000
21
765.361000
0
LINE
8
Layer 1
10
435.626000
20
765.361000
11
435.626000
21
636.683000
0
LINE
8
Layer 1
10
435.626000
20
636.683000
11
329.736000
21
636.683000
0
LINE
8
Layer 1
10
329.736000
20
636.683000
11
329.736000
21
765.361000
0
LINE
8
Layer 1
10
329.736000
20
765.361000
11
247.302000
21
765.361000
0
LINE
8
Layer 1
10
247.302000
20
765.361000
11
247.302000
21
636.683000
0
LINE
8
Layer 1
10
247.302000
20
636.683000
11
141.412000
21
636.683000
0
LINE
8
Layer 1
10
141.412000
20
636.683000
11
141.412000
21
765.361000
0
LINE
8
Layer 1
10
141.412000
20
765.361000
11
58.977300
21
765.361000
0
LINE
8
Layer 1
10
58.977300
20
765.361000
11
58.977300
21
636.683000
0
LINE
8
Layer 1
10
58.977300
20
636.683000
11
0.000000
21
636.683000
0
LINE
8
Layer 1
10
0.000000
20
636.683000
11
0.000000
21
128.676000
0
LINE
8
Layer 1
10
0.000000
20
128.676000
11
58.977300
21
128.676000
0
LINE
8
Layer 1
10
58.977300
20
128.676000
11
58.977300
21
-0.000895
0
LINE
8
Layer 1
10
58.977300
20
-0.000895
11
141.412000
21
-0.000895
0
LINE
8
Layer 1
10
141.412000
20
-0.000895
11
141.412000
21
128.676000
0
LINE
8
Layer 1
10
141.412000
20
128.676000
11
247.302000
21
128.676000
0
LINE
8
Layer 1
10
247.302000
20
128.676000
11
247.302000
21
-0.000895
0
LINE
8
Layer 1
10
247.302000
20
-0.000895
11
329.736000
21
-0.000895
0
LINE
8
Layer 1
10
329.736000
20
-0.000895
11
329.736000
21
128.676000
0
LINE
8
Layer 1
10
329.736000
20
128.676000
11
435.626000
21
128.676000
0
LINE
8
Layer 1
10
435.626000
20
128.676000
11
435.626000
21
-0.000895
0
LINE
8
Layer 1
10
435.626000
20
-0.000895
11
518.060000
21
-0.000895
0
LINE
8
Layer 1
10
518.060000
20
-0.000895
11
518.060000
21
128.676000
0
LINE
8
Layer 1
10
518.060000
20
128.676000
11
623.951000
21
128.676000
0
LINE
8
Layer 1
10
623.951000
20
128.676000
11
623.951000
21
-0.000895
0
LINE
8
Layer 1
10
623.951000
20
-0.000895
11
706.386000
21
-0.000895
0
LINE
8
Layer 1
10
706.386000
20
-0.000895
11
706.386000
21
128.676000
0
LINE
8
Layer 1
10
706.386000
20
128.676000
11
812.275000
21
128.676000
0
LINE
8
Layer 1
10
812.275000
20
128.676000
11
812.275000
21
-0.000895
0
LINE
8
Layer 1
10
812.275000
20
-0.000895
11
894.710000
21
-0.000895
0
LINE
8
Layer 1
10
894.710000
20
-0.000895
11
894.710000
21
128.676000
0
LINE
8
Layer 1
10
894.710000
20
128.676000
11
999.930000
21
128.676000
0
LINE
8
Layer 1
10
999.930000
20
128.676000
11
999.930000
21
-0.000895
0
LINE
8
Layer 1
10
999.930000
20
-0.000895
11
1082.360000
21
-0.000895
0
LINE
8
Layer 1
10
1082.360000
20
-0.000895
11
1082.360000
21
128.676000
0
LINE
8
Layer 1
10
1082.360000
20
128.676000
11
1188.250000
21
128.676000
0
LINE
8
Layer 1
10
1188.250000
20
128.676000
11
1188.250000
21
-0.000895
0
LINE
8
Layer 1
10
1188.250000
20
-0.000895
11
1270.690000
21
-0.000895
0
LINE
8
Layer 1
10
1270.690000
20
-0.000895
11
1270.690000
21
128.676000
0
LINE
8
Layer 1
10
1270.690000
20
128.676000
11
1376.580000
21
128.676000
0
LINE
8
Layer 1
10
1376.580000
20
128.676000
11
1376.580000
21
-0.000895
0
LINE
8
Layer 1
10
1376.580000
20
-0.000895
11
1459.010000
21
-0.000895
0
LINE
8
Layer 1
10
1459.010000
20
-0.000895
11
1459.010000
21
128.676000
0
LINE
8
Layer 1
10
1459.010000
20
128.676000
11
1519.330000
21
128.676000
0
LINE
8
Layer 1
10
1519.330000
20
128.676000
11
1519.330000
21
636.683000
0
LINE
8
Layer 1
10
1519.330000
20
636.683000
11
1459.010000
21
636.683000
0
LINE
8
Layer 1
10
1459.010000
20
636.683000
11
1459.010000
21
765.361000
0
LINE
8
Layer 1
10
1459.010000
20
765.361000
11
1376.580000
21
765.361000
0
LINE
8
Layer 1
10
1193.620000
20
438.306000
11
1193.620000
21
473.827000
0
LINE
8
Layer 1
10
1193.620000
20
473.827000
11
1226.460000
21
473.827000
0
LINE
8
Layer 1
10
1226.460000
20
473.827000
11
1226.460000
21
509.347000
0
LINE
8
Layer 1
10
1226.460000
20
509.347000
11
1423.490000
21
509.347000
0
LINE
8
Layer 1
10
1423.490000
20
509.347000
11
1423.490000
21
473.827000
0
LINE
8
Layer 1
10
1423.490000
20
473.827000
11
1259.290000
21
473.827000
0
LINE
8
Layer 1
10
1259.290000
20
473.827000
11
1259.290000
21
402.786000
0
LINE
8
Layer 1
10
1259.290000
20
402.786000
11
1390.650000
21
402.786000
0
LINE
8
Layer 1
10
1390.650000
20
402.786000
11
1390.650000
21
367.266000
0
LINE
8
Layer 1
10
1390.650000
20
367.266000
11
1423.490000
21
367.266000
0
LINE
8
Layer 1
10
1423.490000
20
367.266000
11
1423.490000
21
296.225000
0
LINE
8
Layer 1
10
1423.490000
20
296.225000
11
1390.650000
21
296.225000
0
LINE
8
Layer 1
10
1390.650000
20
296.225000
11
1390.650000
21
260.705000
0
LINE
8
Layer 1
10
1390.650000
20
260.705000
11
1193.620000
21
260.705000
0
LINE
8
Layer 1
10
1193.620000
20
260.705000
11
1193.620000
21
296.225000
0
LINE
8
Layer 1
10
1193.620000
20
296.225000
11
1357.810000
21
296.225000
0
LINE
8
Layer 1
10
1357.810000
20
296.225000
11
1357.810000
21
367.266000
0
LINE
8
Layer 1
10
1357.810000
20
367.266000
11
1226.460000
21
367.266000
0
LINE
8
Layer 1
10
1226.460000
20
367.266000
11
1226.460000
21
402.786000
0
LINE
8
Layer 1
10
1226.460000
20
402.786000
11
1193.620000
21
402.786000
0
LINE
8
Layer 1
10
1193.620000
20
402.786000
11
1193.620000
21
438.306000
0
LINE
8
Layer 1
10
1026.740000
20
402.786000
11
1026.740000
21
438.306000
0
LINE
8
Layer 1
10
1026.740000
20
438.306000
11
1059.580000
21
438.306000
0
LINE
8
Layer 1
10
1059.580000
20
438.306000
11
1059.580000
21
473.827000
0
LINE
8
Layer 1
10
1059.580000
20
473.827000
11
1092.420000
21
473.827000
0
LINE
8
Layer 1
10
1092.420000
20
473.827000
11
1092.420000
21
509.347000
0
LINE
8
Layer 1
10
1092.420000
20
509.347000
11
1158.100000
21
509.347000
0
LINE
8
Layer 1
10
1158.100000
20
509.347000
11
1158.100000
21
473.827000
0
LINE
8
Layer 1
10
1158.100000
20
473.827000
11
1158.770000
21
473.827000
0
LINE
8
Layer 1
10
1158.770000
20
473.827000
11
1125.930000
21
473.827000
0
LINE
8
Layer 1
10
1125.930000
20
473.827000
11
1125.930000
21
438.306000
0
LINE
8
Layer 1
10
1125.930000
20
438.306000
11
1092.420000
21
438.306000
0
LINE
8
Layer 1
10
1092.420000
20
438.306000
11
1092.420000
21
402.786000
0
LINE
8
Layer 1
10
1092.420000
20
402.786000
11
1059.580000
21
402.786000
0
LINE
8
Layer 1
10
1059.580000
20
402.786000
11
1059.580000
21
367.266000
0
LINE
8
Layer 1
10
1059.580000
20
367.266000
11
1092.420000
21
367.266000
0
LINE
8
Layer 1
10
1092.420000
20
367.266000
11
1092.420000
21
331.745000
0
LINE
8
Layer 1
10
1092.420000
20
331.745000
11
1125.260000
21
331.745000
0
LINE
8
Layer 1
10
1125.260000
20
331.745000
11
1125.260000
21
296.225000
0
LINE
8
Layer 1
10
1125.260000
20
296.225000
11
1158.100000
21
296.225000
0
LINE
8
Layer 1
10
1158.100000
20
296.225000
11
1158.100000
21
260.705000
0
LINE
8
Layer 1
10
1158.100000
20
260.705000
11
1092.420000
21
260.705000
0
LINE
8
Layer 1
10
1092.420000
20
260.705000
11
1092.420000
21
296.225000
0
LINE
8
Layer 1
10
1092.420000
20
296.225000
11
1059.580000
21
296.225000
0
LINE
8
Layer 1
10
1059.580000
20
296.225000
11
1059.580000
21
331.745000
0
LINE
8
Layer 1
10
1059.580000
20
331.745000
11
1026.740000
21
331.745000
0
LINE
8
Layer 1
10
1026.740000
20
331.745000
11
1026.740000
21
367.266000
0
LINE
8
Layer 1
10
1026.740000
20
367.266000
11
993.898000
21
367.266000
0
LINE
8
Layer 1
10
993.898000
20
367.266000
11
993.898000
21
260.705000
0
LINE
8
Layer 1
10
993.898000
20
260.705000
11
928.218000
21
260.705000
0
LINE
8
Layer 1
10
928.218000
20
260.705000
11
928.218000
21
509.347000
0
LINE
8
Layer 1
10
928.218000
20
509.347000
11
993.898000
21
509.347000
0
LINE
8
Layer 1
10
993.898000
20
509.347000
11
993.898000
21
402.786000
0
LINE
8
Layer 1
10
993.898000
20
402.786000
11
1026.740000
21
402.786000
0
LINE
8
Layer 1
10
762.681000
20
438.306000
11
795.521000
21
438.306000
0
LINE
8
Layer 1
10
795.521000
20
438.306000
11
795.521000
21
473.827000
0
LINE
8
Layer 1
10
795.521000
20
473.827000
11
828.360000
21
473.827000
0
LINE
8
Layer 1
10
828.360000
20
473.827000
11
828.360000
21
509.347000
0
LINE
8
Layer 1
10
828.360000
20
509.347000
11
894.039000
21
509.347000
0
LINE
8
Layer 1
10
894.039000
20
509.347000
11
894.039000
21
473.827000
0
LINE
8
Layer 1
10
894.039000
20
473.827000
11
861.200000
21
473.827000
0
LINE
8
Layer 1
10
861.200000
20
473.827000
11
861.200000
21
438.306000
0
LINE
8
Layer 1
10
861.200000
20
438.306000
11
828.360000
21
438.306000
0
LINE
8
Layer 1
10
828.360000
20
438.306000
11
828.360000
21
402.786000
0
LINE
8
Layer 1
10
828.360000
20
402.786000
11
795.521000
21
402.786000
0
LINE
8
Layer 1
10
795.521000
20
402.786000
11
795.521000
21
260.705000
0
LINE
8
Layer 1
10
795.521000
20
260.705000
11
729.841000
21
260.705000
0
LINE
8
Layer 1
10
729.841000
20
260.705000
11
729.841000
21
402.786000
0
LINE
8
Layer 1
10
729.841000
20
402.786000
11
697.001000
21
402.786000
0
LINE
8
Layer 1
10
697.001000
20
402.786000
11
697.001000
21
438.306000
0
LINE
8
Layer 1
10
697.001000
20
438.306000
11
664.162000
21
438.306000
0
LINE
8
Layer 1
10
664.162000
20
438.306000
11
664.162000
21
473.827000
0
LINE
8
Layer 1
10
664.162000
20
473.827000
11
631.322000
21
473.827000
0
LINE
8
Layer 1
10
631.322000
20
473.827000
11
631.322000
21
509.347000
0
LINE
8
Layer 1
10
631.322000
20
509.347000
11
697.001000
21
509.347000
0
LINE
8
Layer 1
10
697.001000
20
509.347000
11
697.001000
21
473.827000
0
LINE
8
Layer 1
10
697.001000
20
473.827000
11
729.841000
21
473.827000
0
LINE
8
Layer 1
10
729.841000
20
473.827000
11
729.841000
21
438.306000
0
LINE
8
Layer 1
10
729.841000
20
438.306000
11
762.681000
21
438.306000
0
LINE
8
Layer 1
10
530.123000
20
402.786000
11
530.123000
21
509.347000
0
LINE
8
Layer 1
10
530.123000
20
509.347000
11
596.473000
21
509.347000
0
LINE
8
Layer 1
10
596.473000
20
509.347000
11
596.473000
21
260.705000
0
LINE
8
Layer 1
10
596.473000
20
260.705000
11
530.123000
21
260.705000
0
LINE
8
Layer 1
10
530.123000
20
260.705000
11
530.123000
21
331.745000
0
LINE
8
Layer 1
10
530.123000
20
331.745000
11
497.283000
21
331.745000
0
LINE
8
Layer 1
10
497.283000
20
331.745000
11
497.283000
21
367.266000
0
LINE
8
Layer 1
10
497.283000
20
367.266000
11
464.445000
21
367.266000
0
LINE
8
Layer 1
10
464.445000
20
367.266000
11
464.445000
21
402.786000
0
LINE
8
Layer 1
10
464.445000
20
402.786000
11
431.605000
21
402.786000
0
LINE
8
Layer 1
10
431.605000
20
402.786000
11
431.605000
21
260.705000
0
LINE
8
Layer 1
10
431.605000
20
260.705000
11
365.926000
21
260.705000
0
LINE
8
Layer 1
10
365.926000
20
260.705000
11
365.926000
21
509.347000
0
LINE
8
Layer 1
10
365.926000
20
509.347000
11
431.605000
21
509.347000
0
LINE
8
Layer 1
10
431.605000
20
509.347000
11
431.605000
21
473.827000
0
LINE
8
Layer 1
10
431.605000
20
473.827000
11
464.445000
21
473.827000
0
LINE
8
Layer 1
10
464.445000
20
473.827000
11
464.445000
21
438.306000
0
LINE
8
Layer 1
10
464.445000
20
438.306000
11
497.283000
21
438.306000
0
LINE
8
Layer 1
10
497.283000
20
438.306000
11
497.283000
21
402.786000
0
LINE
8
Layer 1
10
497.283000
20
402.786000
11
530.123000
21
402.786000
0
LINE
8
Layer 1
10
101.870000
20
331.745000
11
101.870000
21
473.827000
0
LINE
8
Layer 1
10
101.870000
20
473.827000
11
134.709000
21
473.827000
0
LINE
8
Layer 1
10
134.709000
20
473.827000
11
134.709000
21
509.347000
0
LINE
8
Layer 1
10
134.709000
20
509.347000
11
298.906000
21
509.347000
0
LINE
8
Layer 1
10
298.906000
20
509.347000
11
298.906000
21
473.827000
0
LINE
8
Layer 1
10
298.906000
20
473.827000
11
331.746000
21
473.827000
0
LINE
8
Layer 1
10
331.746000
20
473.827000
11
331.746000
21
296.225000
0
LINE
8
Layer 1
10
331.746000
20
296.225000
11
298.906000
21
296.225000
0
LINE
8
Layer 1
10
298.906000
20
296.225000
11
298.906000
21
260.705000
0
LINE
8
Layer 1
10
298.906000
20
260.705000
11
134.709000
21
260.705000
0
LINE
8
Layer 1
10
134.709000
20
260.705000
11
134.709000
21
296.225000
0
LINE
8
Layer 1
10
134.709000
20
296.225000
11
101.870000
21
296.225000
0
LINE
8
Layer 1
10
101.870000
20
296.225000
11
101.870000
21
331.745000
0
LINE
8
Layer 1
10
199.048000
20
473.827000
11
166.208000
21
473.827000
0
LINE
8
Layer 1
10
166.208000
20
473.827000
11
166.208000
21
294.886000
0
LINE
8
Layer 1
10
166.208000
20
294.886000
11
265.397000
21
294.886000
0
LINE
8
Layer 1
10
265.397000
20
294.886000
11
265.397000
21
473.827000
0
LINE
8
Layer 1
10
265.397000
20
473.827000
11
199.048000
21
473.827000
 0 
ENDSEC
 0 
EOF